<svg width="1920" height="968" viewBox="0 0 1920 968" fill="none" xmlns="http://www.w3.org/2000/svg">
<path d="M-15.11 6.11217C-15.11 6.11217 67.39 -23.9815 164.89 60.7588C230.29 117.597 230.89 157.178 254.151 253.549C282.651 371.63 369.469 547.172 585.89 462.736C701.774 417.524 691.99 540.216 622.89 661.872C579.096 738.97 489.031 823.373 465.89 839.705C307.107 951.766 72.2231 939.995 -16.11 918.434C-104.104 896.954 -36.103 10.2801 -15.11 6.11217Z" fill="#EA5B13"/>
<path d="M1933.89 217.404C1933.89 217.404 1626.31 140.124 1400.89 410.982C1296.71 536.168 1274.39 618.464 1278.89 751.83C1285.64 951.854 1319.81 1000.71 1495.89 946.335C1590.36 917.159 1690.89 882.425 1690.89 882.425C1746.89 862.049 1907.9 825.075 1934.89 829.632C1961.88 834.189 1989.37 218.793 1933.89 217.404Z" fill="#263143"/>
</svg>
