<svg width="40" height="38" viewBox="0 0 40 38" fill="none" xmlns="http://www.w3.org/2000/svg">
<g clip-path="url(#clip0_625_595)">
<path d="M26.1987 0.841186C26.9317 1.12188 27.6688 1.39497 28.3976 1.6848C28.8816 1.87802 29.2221 2.19295 29.2608 2.72239C29.2921 3.19099 29.1009 3.57057 28.6754 3.814C28.4792 3.92582 28.2409 3.97679 28.0159 4.04221C27.0265 4.32595 26.3875 4.9269 26.202 5.88766C26.0182 6.8606 26.3908 7.64716 27.2351 8.22909C28.0282 8.77452 28.1478 9.218 27.724 10.0624C26.2152 13.0679 28.4124 16.5557 31.9288 16.7375C32.8687 16.7862 33.2562 17.1179 33.365 17.9714C33.4912 18.9603 34.0246 19.6791 35.0305 20.0002C36.0536 20.3273 36.9523 20.0633 37.7001 19.3246C38.3745 18.6568 39.2287 18.5989 39.7143 19.2379C39.913 19.5084 40.0126 19.8304 39.9987 20.1569C39.5988 24.9318 37.6078 29.035 33.9422 32.3737C30.2477 35.7383 25.8022 37.5791 20.6789 37.7229C14.1211 37.9062 8.66553 35.5975 4.50113 30.8363C1.14141 26.9948 -0.351704 22.5097 0.0696011 17.5241C0.523884 12.133 3.00059 7.66694 7.4651 4.25444C11.5908 1.10058 16.3471 -0.296819 21.6435 0.0523415C22.3806 0.101787 23.1144 0.204481 23.849 0.280551L26.1987 0.841186ZM24.9818 3.06091C20.2353 1.50528 12.332 2.21501 6.87396 8.02751C1.52809 13.7198 1.04577 22.1004 5.7197 28.4568C10.2708 34.6444 18.842 37.0292 26.4865 34.1826C30.2337 32.7883 33.1243 30.4042 35.1706 27.1332C36.1104 25.6527 36.7766 24.0383 37.1419 22.356C37.0909 22.352 37.0396 22.352 36.9886 22.356C34.3799 22.957 31.8826 21.5254 31.1101 19.2539C31.0713 19.139 30.8941 19.0333 30.7572 18.9892C30.2906 18.837 29.7992 18.7496 29.3424 18.5792C25.8483 17.2692 23.9174 13.4277 25.0651 10.0593C25.1648 9.76494 25.1022 9.59075 24.9002 9.37927C24.2396 8.68398 23.8195 7.8223 23.6939 6.90498C23.5683 5.98767 23.7429 5.05665 24.1953 4.23162C24.4187 3.8216 24.7172 3.44886 24.9818 3.06091Z" fill="#EA5B13"/>
<path d="M15.2753 7.98231C15.6149 6.74012 16.9852 5.96498 18.306 6.26773C19.6449 6.572 20.4661 7.87278 20.1198 9.13551C19.7736 10.3983 18.3884 11.1711 17.0536 10.8418C15.7378 10.5147 14.9356 9.22679 15.2753 7.98231Z" fill="#EA5B13"/>
<path d="M19.3223 30.8848C18.0089 30.5805 17.1927 29.2874 17.5224 28.0398C17.8522 26.7923 19.2448 26.0019 20.5804 26.3153C21.8996 26.6249 22.7084 27.9128 22.3761 29.1634C22.2994 29.4621 22.1594 29.7438 21.964 29.9923C21.7687 30.2408 21.5219 30.4512 21.238 30.6112C20.9541 30.7713 20.6386 30.8779 20.3098 30.9248C19.981 30.9718 19.6454 30.9582 19.3223 30.8848Z" fill="#EA5B13"/>
<path d="M12.9886 25.7167C12.9491 25.8666 12.8777 26.0078 12.7784 26.132C12.6791 26.2562 12.554 26.3608 12.4104 26.4399C12.2668 26.5189 12.1075 26.5708 11.9419 26.5923C11.7763 26.6139 11.6077 26.6048 11.446 26.5656C11.1999 26.5097 10.9774 26.3876 10.8068 26.2147C10.6361 26.0418 10.525 25.8261 10.4876 25.5948C10.4502 25.3636 10.4882 25.1273 10.5966 24.916C10.7051 24.7047 10.8793 24.5279 11.0969 24.4082C11.3146 24.2884 11.5659 24.231 11.8189 24.2433C12.072 24.2557 12.3154 24.3371 12.5181 24.4774C12.7209 24.6177 12.8739 24.8104 12.9576 25.031C13.0414 25.2517 13.0522 25.4904 12.9886 25.7167Z" fill="#EA5B13"/>
</g>
<defs>
<clipPath id="clip0_625_595">
<rect width="40" height="38" fill="white"/>
</clipPath>
</defs>
</svg>
