<svg width="26" height="48" viewBox="0 0 26 48" fill="none" xmlns="http://www.w3.org/2000/svg">
<g clip-path="url(#clip0_625_591)">
<path d="M21.5645 0C21.7995 0.102305 22.0456 0.186008 22.2706 0.308774C23.0958 0.754263 23.5205 1.43133 23.5507 2.3065C23.5719 2.91754 23.5588 3.53044 23.5568 4.1424C23.5507 5.58676 22.7336 6.45541 21.1852 6.66839C21.0893 6.68141 20.9935 6.69723 20.8603 6.71769C20.8603 7.13992 20.8694 7.55472 20.8603 7.96208C20.8452 8.46523 20.5577 8.77029 20.1098 8.76935C19.6619 8.76842 19.3825 8.46802 19.3704 7.96022C19.3613 7.57797 19.3623 7.19573 19.3563 6.81348C19.3563 6.78651 19.33 6.76047 19.3018 6.71025H6.69422C6.62159 8.44663 6.55098 10.1635 6.47834 11.9027H19.6841C19.6155 11.6134 19.5459 11.3391 19.4874 11.0656C19.3785 10.5597 19.5671 10.2025 19.9918 10.1068C20.4498 10.0026 20.8391 10.2351 20.942 10.7578C21.2305 12.2272 22.0517 13.3768 23.2884 14.3208C25.1436 15.7372 26.001 17.5936 26 19.8006C26 27.59 26 35.3788 26 43.1669C26 45.5097 24.3376 47.0126 21.8116 47.0136C15.9359 47.0173 10.0595 47.0173 4.18239 47.0136C2.11744 47.0136 0.64162 46.0035 0.139254 44.2402C0.0536031 43.9135 0.0115937 43.5784 0.0141645 43.2423C4.17428e-05 42.0332 0.00710311 40.8241 0.0141645 39.6151C0.0107492 39.4773 0.0273757 39.3396 0.0635962 39.2059C0.164473 38.8869 0.409603 38.7278 0.769733 38.7306C1.12986 38.7334 1.37499 38.8943 1.45973 39.218C1.49849 39.3976 1.51507 39.5808 1.50916 39.7639C1.50916 40.8967 1.50411 42.0285 1.50916 43.1613C1.52227 44.7424 2.49775 45.6353 4.20458 45.6362C10.081 45.6362 15.9574 45.6362 21.8338 45.6362C23.5144 45.6362 24.508 44.7424 24.5101 43.192C24.5175 35.3722 24.5175 27.5528 24.5101 19.7336C24.5101 17.9619 23.7686 16.5175 22.3261 15.3364C21.6643 14.7932 21.1236 14.1273 20.5103 13.5265C20.3952 13.4106 20.238 13.3374 20.0685 13.321C15.3541 13.3111 10.6398 13.3111 5.92554 13.321C5.77826 13.321 5.59971 13.4335 5.49076 13.5405C4.91677 14.1078 4.41743 14.7495 3.78494 15.2555C2.23547 16.4878 1.49302 18.0102 1.49806 19.8889C1.51218 25.2134 1.5031 30.5388 1.49806 35.8642C1.50613 36.0778 1.49025 36.2917 1.45065 36.5022C1.37197 36.8473 1.10868 37.0175 0.73039 37.011C0.570422 37.0183 0.413124 36.9711 0.288349 36.8786C0.163574 36.786 0.080007 36.6544 0.0535079 36.5088C0.0159184 36.3286 1.78786e-05 36.1452 0.0060957 35.9619C0.0060957 30.6216 0.0151748 25.2813 4.33442e-05 19.941C-0.00701802 17.6457 0.848416 15.7251 2.78626 14.2585C4.43761 13.0001 5.21032 11.3995 5.14374 9.43061C5.11247 8.53033 5.1387 7.62913 5.1387 6.71769C4.93695 6.68792 4.77857 6.66281 4.61717 6.64049C3.39454 6.47216 2.51288 5.60722 2.45639 4.46327C2.41402 3.71416 2.41402 2.96353 2.45639 2.21443C2.52095 1.20905 3.09998 0.505942 4.13498 0.137646C4.23585 0.100444 4.33673 0.044642 4.43761 0H21.5645ZM13.0535 1.37739C10.4307 1.37739 7.81092 1.37739 5.19418 1.37739C4.32463 1.37739 3.94432 1.72709 3.93524 2.51855C3.93524 2.99287 3.93524 3.46626 3.93524 3.94058C3.93524 5.01106 4.25199 5.30495 5.40804 5.30495H17.942C18.871 5.30495 19.7991 5.30495 20.7282 5.30495C21.6815 5.30495 22.0577 4.95526 22.0618 4.08846C22.0618 3.59926 22.0618 3.11006 22.0618 2.62086C22.0618 1.70104 21.7097 1.37646 20.7141 1.37646C18.1612 1.37584 15.6077 1.37615 13.0535 1.37739Z" fill="#EA5B13"/>
<path d="M13.0048 35.6894C11.6897 35.6894 10.3746 35.6894 9.05718 35.6894C8.39736 35.6894 8.01387 35.4316 8.00034 35.0051C7.9868 34.5786 8.38044 34.2776 9.01545 34.2757C11.6638 34.2681 14.3121 34.2681 16.9604 34.2757C17.7849 34.2757 18.271 34.8642 17.839 35.3406C17.6687 35.5322 17.2875 35.6683 16.9976 35.676C15.6723 35.7086 14.338 35.6894 13.0048 35.6894Z" fill="#EA5B13"/>
<path d="M12.9806 38.8947C12.2868 38.8947 11.592 38.9078 10.8982 38.8947C10.2503 38.8779 9.91944 38.5615 9.92288 38.0126C9.92631 37.4636 10.2663 37.1412 10.9062 37.1328C12.2945 37.1153 13.6831 37.1153 15.0721 37.1328C15.7429 37.1412 16.0932 37.4924 16.0761 38.0521C16.0589 38.5926 15.7326 38.8827 15.0641 38.8971C14.3703 38.9066 13.6755 38.8947 12.9806 38.8947Z" fill="#EA5B13"/>
</g>
<defs>
<clipPath id="clip0_625_591">
<rect width="26" height="48" fill="white"/>
</clipPath>
</defs>
</svg>
