<svg width="64" height="41" viewBox="0 0 64 41" fill="none" xmlns="http://www.w3.org/2000/svg">
<path d="M62.6687 17.5062C62.2457 14.5921 61.2967 11.8332 59.6739 9.29437C57.7086 6.21991 55.0161 3.90388 51.3672 2.62018C50.2937 2.24573 49.1969 1.91376 48.0477 1.87215C46.1385 1.80021 44.4408 2.39222 42.9004 3.40982C41.6351 4.25059 40.5897 5.30459 39.5378 6.35686C38.4522 7.4438 37.3432 8.51167 36.2314 9.57521C36.0907 9.69482 35.9129 9.77034 35.7232 9.79104C34.7986 9.89332 33.874 9.92712 32.9503 9.74943C32.1801 9.60035 31.379 9.55614 30.634 9.34118C28.7145 8.78557 27.1629 7.66396 25.7095 6.4184C24.4461 5.33926 23.2238 4.21245 21.9267 3.17232C19.7031 1.38502 17.1248 0.647394 14.1937 1.15879C12.8114 1.40062 11.4488 1.73173 10.2509 2.45116C7.59488 4.04603 5.61646 6.21558 4.12189 8.77864C2.33813 11.8332 1.38916 15.1148 1.09436 18.5663C0.778042 22.2804 1.24223 25.9001 2.7106 29.382C3.96279 32.3489 5.84762 34.8999 8.65335 36.8016C11.1493 38.4935 13.9522 39.4366 17.0434 39.5753C18.932 39.6619 20.756 39.2745 22.5528 38.7605C24.5069 38.2014 26.3403 37.3736 28.1951 36.5935C28.2887 36.5481 28.3922 36.5231 28.4978 36.5204C28.6034 36.5177 28.7083 36.5374 28.8044 36.5779C31.6635 37.6675 34.5478 38.6903 37.6109 39.1783C38.8275 39.3724 40.0619 39.5207 41.2944 39.6264C42.0862 39.694 42.891 39.6264 43.6875 39.6576C44.4633 39.6879 45.2363 39.7694 46.0112 39.8206C48.4445 39.9826 50.7626 39.5293 52.9684 38.6001C54.3325 38.0294 55.5804 37.2457 56.6576 36.2832C58.0174 35.0698 59.3155 33.8129 60.2672 32.2692C60.9645 31.1424 61.2209 29.8769 61.6757 28.679C62.6471 26.1194 63.0037 23.4549 63 20.7298C62.8923 19.655 62.824 18.5758 62.6687 17.5062ZM29.394 32.8257C26.3908 34.2723 23.236 35.2873 19.8304 35.5231C17.4823 35.6852 15.1604 35.556 12.905 34.8912C9.65379 33.9325 7.25423 31.9849 5.50416 29.3161C4.01801 27.0486 3.19538 24.5687 2.83507 21.9485C2.34374 18.3851 2.68721 14.899 4.00584 11.5116C4.97353 9.02394 6.42131 6.82145 8.6 5.07316C10.7328 3.36214 13.226 2.45809 16.0317 2.28474C16.6971 2.244 17.3737 2.18679 18.0326 2.25007C19.1706 2.36015 20.1317 2.89408 20.9104 3.63691C21.8341 4.52016 22.6885 5.46408 23.5514 6.40107C24.3862 7.30945 25.2116 8.2213 26.2514 8.94159C27.3534 9.71289 28.6839 10.1533 30.0641 10.2036C30.912 10.2426 31.7486 10.4116 32.5956 10.5252C33.2675 10.6119 33.9395 10.7064 34.6096 10.806C34.7217 10.8337 34.8303 10.8727 34.9334 10.9222C34.9212 10.9603 34.91 10.9976 34.8987 11.0357C34.6245 11.0045 34.3503 10.9716 34.0761 10.9439C32.5516 10.793 31.0346 10.8918 29.584 11.3252C28.0435 11.7855 26.7895 11.3252 25.5962 10.5105C24.403 9.69569 23.5551 8.61482 22.5753 7.62843C21.8968 6.9454 21.2267 6.22944 20.4368 5.66777C17.9231 3.87961 15.1529 3.74353 12.2948 4.8478C10.2612 5.63397 8.73009 7.01475 7.47696 8.66162C5.4817 11.2854 4.34275 14.1995 4.12563 17.4005C3.91974 20.3744 4.27163 23.2781 5.63986 26.0163C7.4545 29.6507 10.4727 32.0135 14.6242 33.0701C19.0705 34.2012 23.3492 33.6006 27.4362 31.7353C31.2779 29.9826 34.2156 27.3242 36.1846 23.8086C37.0615 22.2423 37.6231 20.546 37.7307 18.7622C37.8018 17.5773 37.5238 16.4852 36.4504 15.7016C36.2215 15.5341 35.9717 15.3927 35.7064 15.2803C34.4154 14.7336 32.9991 14.4889 31.582 14.5678C29.3584 14.684 27.1301 14.7126 24.9131 14.4292C24.4869 14.3747 24.0656 14.2916 23.6525 14.1804C23.4839 14.1209 23.3365 14.0191 23.2266 13.8866C22.0166 12.5578 20.7157 11.3183 19.1556 10.3328C18.0064 9.60728 16.7823 9.04821 15.386 8.90779C13.1165 8.68069 11.4048 9.58994 10.089 11.2264C8.99587 12.5864 8.40441 14.1492 8.10774 15.8056C7.53499 18.9641 7.89904 22.0195 9.49001 24.8851C11.372 28.2655 14.4136 30.1005 18.4968 30.455C19.238 30.52 19.9839 30.6015 20.726 30.5876C22.4452 30.5564 23.937 29.9159 25.2724 28.9598C27.292 27.5132 28.7595 25.6955 29.4689 23.3986C29.6907 22.68 29.7786 21.945 29.6214 21.2013C29.3303 19.8231 28.2176 18.9407 26.5761 18.7449C25.4765 18.6148 24.3955 18.7336 23.3249 18.9459C22.3497 19.1401 21.4944 18.9052 20.7494 18.3392C20.1654 17.8971 19.6264 17.4022 19.0817 16.916C18.4724 16.3725 17.8538 15.842 17.0799 15.5031C14.6466 14.4335 12.1394 15.5672 11.6603 18.0653C11.1605 20.6717 11.8325 23.0059 13.8539 24.9805C15.0706 26.1627 16.4819 26.9454 18.1917 27.2826C19.1884 27.4794 20.1851 27.5071 21.1705 27.2115C22.6389 26.7712 23.4503 25.816 23.6637 24.4257C23.7242 23.9896 23.7333 23.5487 23.6908 23.1108C23.5972 21.984 22.7175 21.3157 21.4953 21.4795C21.0088 21.5572 20.5363 21.6972 20.0915 21.8956C19.7536 22.0369 19.456 22.075 19.1378 21.9164C18.9104 21.802 18.6933 21.6711 18.4734 21.5445C18.3629 21.4813 18.2591 21.4085 18.1505 21.3435C17.5778 21.0011 16.9975 20.6457 16.3031 21.0678C15.678 21.4475 15.3672 22.3359 15.575 23.0822C15.8455 24.0357 16.5464 24.6936 17.3756 25.2492C17.852 25.5681 18.3686 25.8152 18.9619 25.894C19.822 26.0093 20.3741 25.4893 20.2038 24.6936C20.1102 24.2437 19.952 23.8051 19.8229 23.3613C19.7873 23.2365 19.748 23.1125 19.6994 22.9539C20.4593 22.6566 21.2192 22.4148 22.0503 22.5205C22.4705 22.5751 22.711 22.8352 22.7054 23.3006C22.6735 25.0524 21.8032 26.8319 19.1313 26.4652C16.7514 26.1393 14.8666 24.977 13.5928 23.0935C12.5484 21.5506 12.2106 19.8439 12.7805 18.0549C12.9134 17.6538 13.1116 17.2738 13.3682 16.9281C13.8221 16.3075 14.4997 16.0509 15.3036 16.0986C16.158 16.1489 16.9404 16.3968 17.5778 16.9376C18.1664 17.4386 18.7242 17.9708 19.2932 18.49C19.9783 19.1158 20.7148 19.6654 21.6806 19.8682C21.8577 19.9034 22.0406 19.9058 22.2187 19.8751C23.3885 19.674 24.5584 19.4764 25.7572 19.622C26.0357 19.6522 26.3113 19.7017 26.5817 19.7703C28.1493 20.1915 28.868 21.3305 28.547 22.9184C28.1858 24.6918 27.1432 26.1047 25.7469 27.313C24.5499 28.3531 23.177 29.1557 21.5355 29.3768C16.5155 30.0537 12.3865 28.458 10.2602 23.8138C8.78624 20.5954 8.65054 17.2722 9.77732 13.9238C10.0462 13.119 10.4573 12.3609 10.9939 11.6806C12.4314 9.86038 14.407 9.35245 16.6541 10.2392C18.1224 10.8182 19.3297 11.7378 20.435 12.7788C20.9347 13.2495 21.3933 13.7574 21.8809 14.2393C22.827 15.1737 24.0203 15.6357 25.3735 15.777C26.6659 15.9114 27.9453 15.7571 29.2106 15.562C30.7492 15.3305 32.3173 15.3212 33.859 15.5343C34.1057 15.5585 34.3342 15.6659 34.501 15.8359C36.5711 17.9075 36.8697 20.2478 35.7363 22.7936C34.9175 24.6355 33.5839 26.1419 31.9929 27.4534C28.7716 30.1135 25.045 31.8332 20.7737 32.4807C18.1795 32.8733 15.6218 32.7355 13.1614 31.7959C10.4773 30.7697 8.55976 28.9702 7.19808 26.6343C5.86447 24.3477 5.16257 21.8722 4.89304 19.3083C4.73301 17.7879 5.0278 16.2745 5.49761 14.801C6.38949 12.0135 7.812 9.505 10.0684 7.44553C11.1119 6.49208 12.2985 5.73452 13.7126 5.32886C15.882 4.70998 17.8482 5.16591 19.6909 6.29272C20.7129 6.91507 21.4419 7.80091 22.2505 8.61915C23.0591 9.43739 23.8799 10.2799 24.7727 11.0314C25.8798 11.9623 27.234 12.381 28.737 12.3316C28.9968 12.3299 29.2537 12.281 29.4932 12.1877C30.181 11.886 30.9176 11.8722 31.6457 11.8332C33.4575 11.7361 35.2328 11.9068 36.9099 12.6003C39.3993 13.63 40.7694 15.4485 41.0801 17.9188C41.3132 19.7685 40.8864 21.5081 39.8158 23.1195C39.2419 23.9883 38.7346 24.8934 38.2978 25.8282C37.9553 26.5554 37.3928 27.0928 36.8163 27.6259C35.1223 29.1733 33.2376 30.5307 31.2011 31.6702C30.576 32.0196 30.0388 32.5145 29.394 32.8257ZM19.6694 22.9739C19.544 23.5468 19.4467 24.0773 19.3072 24.5982C19.2136 24.9319 18.9947 25.0195 18.6353 24.9276C17.7846 24.7118 16.6475 23.4905 16.5399 22.674C16.528 22.5845 16.5265 22.4941 16.5352 22.4044C16.5754 21.971 17.0153 21.7404 17.4205 21.9632C17.638 22.0928 17.8412 22.2421 18.027 22.4087C18.4743 22.7858 18.9656 23.0467 19.6694 22.9739ZM55.9005 20.4507C55.7826 18.7362 55.3755 17.085 54.4845 15.5646C54.2061 15.0899 53.8775 14.6419 53.5037 14.2272C51.997 12.5604 49.8539 12.2024 47.7884 13.2373C46.3303 13.9672 45.2195 15.0515 44.1984 16.2303C44.0365 16.4167 43.8774 16.6056 43.7146 16.792C43.7043 16.8041 43.6753 16.8024 43.6379 16.8102C43.4806 16.3595 43.3431 15.901 43.1624 15.4572C42.7432 14.4283 42.1807 13.4792 41.3066 12.7095C41.2749 12.6713 41.2541 12.6264 41.2462 12.5788C41.2383 12.5312 41.2437 12.4825 41.2617 12.4373C41.4245 12.2215 41.6229 12.0291 41.8064 11.8306C42.206 11.3894 42.6187 10.956 42.9996 10.5009C43.162 10.2884 43.2991 10.0603 43.4086 9.82051C44.3519 7.97427 47.6668 6.20951 50.6325 7.51748C52.2235 8.22217 53.4701 9.29784 54.522 10.5789C56.4499 12.927 57.645 15.5872 58.3487 18.4475C58.6838 19.8075 58.9102 21.1866 58.8588 22.5821C58.7745 24.704 58.1316 26.6949 56.8495 28.4545C55.9726 29.6567 54.7091 30.5096 53.3372 31.2039C50.6821 32.5474 47.8221 33.0866 44.8208 33.0138C42.4325 32.9522 40.1489 32.4764 38.0339 31.4293C37.6745 31.2559 37.3339 31.0453 36.9034 30.8069C37.6109 30.1378 38.2651 29.5068 38.9379 28.8922C39.1382 28.7093 39.3974 28.7527 39.6352 28.8662C40.1621 29.1193 40.6871 29.3768 41.2158 29.6273C43.2804 30.6058 45.4768 31.0661 47.7875 30.9439C51.1117 30.7705 53.4364 29.1999 54.8214 26.4262C55.7648 24.5306 56.0437 22.5179 55.9005 20.4507ZM41.7774 25.6895C41.827 25.7224 41.8953 25.7649 41.9645 25.8117C43.6182 27.0061 45.503 27.326 47.5339 27.0512C48.8026 26.8908 50.01 26.4466 51.0518 25.7571C53.5431 24.0946 53.9848 21.5922 52.1898 19.2831C51.9604 18.9799 51.6969 18.7001 51.4037 18.4484C49.7631 17.0815 47.5432 17.3918 46.3809 19.1358C45.3514 20.6873 45.7014 22.5838 47.2372 23.7202C47.9213 24.2264 49.0256 24.2844 49.7706 23.8528C50.4678 23.4489 50.582 22.7754 50.0513 22.1912C50.0391 22.1745 50.025 22.1591 50.0092 22.1452L47.9232 20.6977C47.9054 20.7168 47.8876 20.735 47.8708 20.754L48.6569 21.808C48.8101 21.9892 48.949 22.1804 49.0724 22.3801C49.1576 22.537 49.269 22.8031 49.195 22.8846C49.0837 23.0068 48.8207 23.0406 48.6195 23.0519C48.4572 23.0486 48.2987 23.0059 48.16 22.9279C47.3074 22.5058 46.7215 21.3044 46.9293 20.4273C47.0447 19.945 47.3261 19.5105 47.7312 19.1893C48.1363 18.868 48.6431 18.6774 49.1754 18.646C49.6997 18.6261 50.2141 18.7821 50.6241 19.0855C52.5239 20.4264 52.6222 23.1984 50.8225 24.6459C50.1302 25.1946 49.3132 25.5916 48.4323 25.8074C46.9705 26.1844 45.5002 26.2408 44.0721 25.7207C43.5321 25.5239 43.0604 25.1651 42.5635 24.8721C42.3932 24.7716 42.3763 24.6441 42.4811 24.4656C43.3908 22.8967 43.7913 21.1944 43.9785 19.4383C43.9785 19.4287 43.9785 19.4183 43.9785 19.4088C44.0085 19.0196 43.9373 18.5897 44.0964 18.2525C44.2555 17.9153 44.6664 17.7108 44.9219 17.4143C45.3112 16.961 45.6631 16.4808 46.0271 16.0093C46.1125 15.9059 46.1862 15.7947 46.247 15.6773C46.9574 14.1847 48.3724 13.9247 49.8969 13.936C51.3569 13.9464 52.4603 14.6294 53.3053 15.6921C54.1504 16.7547 54.594 17.9951 54.8027 19.2961C55.1771 21.6364 54.8841 23.89 53.7377 26.018C52.6203 28.0905 50.8852 29.4617 48.3555 29.8439C46.8423 30.0728 45.3467 29.9185 43.9074 29.4756C42.7946 29.1332 41.7175 28.6868 40.6422 28.2508C40.0451 28.009 39.9973 27.7906 40.3885 27.3026C40.8331 26.7556 41.3094 26.2364 41.7774 25.6895ZM61.0655 23.3535C60.6435 26.2546 59.5775 28.9295 57.6187 31.2733C56.666 32.4131 55.5533 33.3821 54.2197 34.1007C53.4148 34.5341 52.5202 34.8288 51.6517 35.1512C50.0532 35.7458 48.3761 35.9972 46.6616 36.0475C43.0501 36.1532 39.5846 35.4615 36.1865 34.4119C35.2254 34.1154 34.2792 33.78 33.2479 33.4359C34.0312 32.5968 34.8828 32.0534 36.0349 32.0152C36.9764 31.984 37.842 32.2657 38.7002 32.5743C39.9674 33.0302 41.2205 33.5226 42.5055 33.9308C43.635 34.2897 44.8058 34.3165 45.9953 34.131C46.6832 34.0236 47.3991 34.0686 48.0954 33.9967C52.026 33.5893 55.2136 32.0213 57.4905 28.9373C58.607 27.4248 59.3894 25.8308 59.5953 24.0036C60.1952 18.6703 58.8606 13.8554 55.1031 9.69569C54.0063 8.4822 52.756 7.40046 51.2661 6.63423C50.0354 6.00235 48.6457 5.76745 47.2269 5.84286C46.2207 5.87737 45.2666 6.26576 44.5587 6.92893C44.175 7.28865 43.8653 7.7177 43.5293 8.12162C43.2354 8.47787 42.9519 8.84105 42.6674 9.20336C42.1489 9.86731 41.6379 10.5399 41.1082 11.197C40.9841 11.3369 40.8195 11.4412 40.6337 11.4977C40.446 11.5467 40.2493 11.5585 40.0563 11.5324C38.9033 11.4188 37.9506 10.8771 36.9586 10.3042C37.3067 9.93579 37.6193 9.59254 37.945 9.26403C39.6473 7.53048 41.4938 5.95381 43.7108 4.78886C45.182 4.01483 46.7384 3.47482 48.4417 3.35001C50.7738 3.17665 52.8346 3.8276 54.6633 5.14337C56.6108 6.54495 57.9791 8.36865 59.0001 10.4186C61.0562 14.5358 61.7197 18.861 61.0683 23.3535H61.0655Z" fill="#263144" stroke="#263144" stroke-width="0.460967" stroke-miterlimit="10"/>
</svg>
