<svg width="2371" height="927" viewBox="0 0 2371 927" fill="none" xmlns="http://www.w3.org/2000/svg">
<g opacity="0.1">
<path d="M1577.19 326.194C1543.88 326.869 1543.93 273.805 1473.53 225.434C1395.25 171.678 1323.68 188.353 1308.64 151.212C1294.43 116.177 1343.04 61.2421 1399.78 43.8674C1495.29 14.6636 1628.64 87.3443 1650.53 176.635C1667.51 245.814 1617.7 325.343 1577.19 326.194Z" fill="white"/>
<path d="M137.058 502.763C170.364 503.438 170.315 450.373 240.719 402.002C318.999 348.247 390.574 364.921 405.614 327.78C419.82 292.745 371.213 237.81 314.469 220.436C218.956 191.232 85.6044 263.912 63.7237 353.203C46.7428 422.382 96.5443 501.911 137.058 502.763Z" fill="white"/>
<path d="M2233.94 365.381C2200.64 364.706 2200.69 417.771 2130.28 466.142C2052 519.897 1980.43 503.223 1965.39 540.364C1951.18 575.399 1999.79 630.334 2056.53 647.708C2152.05 676.912 2285.4 604.231 2307.28 514.94C2324.26 445.762 2274.46 366.233 2233.94 365.381Z" fill="white"/>
<path d="M798.116 600.806C831.423 600.131 831.373 653.195 901.778 701.566C980.057 755.322 1051.63 738.647 1066.67 775.788C1080.88 810.823 1032.27 865.758 975.528 883.133C880.014 912.336 746.663 839.656 724.782 750.365C707.801 681.186 757.603 601.657 798.116 600.806Z" fill="white"/>
</g>
</svg>
