<svg width="399" height="150" viewBox="0 0 399 150" fill="none" xmlns="http://www.w3.org/2000/svg">
<path d="M370.57 116.522C365.095 117.533 357.298 119.255 347.986 121.391C329.354 125.669 304.585 131.673 279.278 134.36L274.552 134.871L269.802 135.262C266.64 135.563 263.479 135.718 260.335 135.909C254.076 136.265 247.917 136.365 241.904 136.26C235.891 136.155 230.069 135.882 224.521 135.436C218.974 134.989 213.718 134.388 208.845 133.718C200.797 132.595 192.817 131.035 184.939 129.044C183.456 128.643 182.101 128.274 180.883 127.951L177.626 127.017C175.75 126.484 174.5 126.083 173.944 125.928C172.511 125.528 165.786 123.719 155.654 120.403C150.585 118.731 144.668 116.676 138.121 114.226C131.574 111.775 124.384 108.964 116.751 105.889L113.872 104.723C112.932 104.345 112.011 103.967 111.062 103.566C109.164 102.76 107.22 101.908 105.231 101.038C101.225 99.3158 97.0783 97.4936 92.6483 95.8127C88.088 94.0463 83.3916 92.6524 78.6055 91.6445C76.6854 91.2597 74.747 90.9723 72.7977 90.7835C82.7161 62.1483 94.0306 34.1554 103.265 5.25147C103.402 1.71648 90.3306 -2.16471 87.6252 2.14469C84.8194 10.3444 74.098 30.7981 63.5499 45.7034C59.6172 52.6777 41.4411 71.6281 41.0578 64.9044C40.3461 52.0445 53.7912 26.0241 55.2968 10.185C56.2868 2.16291 46.6831 -1.03953 37.0202 0.304307C30.341 0.805401 23.1326 6.1671 16.6313 13.3692C8.78873 22.2203 -10.7424 48.9286 7.67097 50.8965C10.5133 51.3065 14.8064 51.015 15.5774 49.3887C16.9963 48.7099 38.2885 3.63431 41.0852 6.83675C49.0875 10.8318 6.70377 74.375 38.7767 74.5208C52.9882 74.6802 69.5357 46.5416 78.2998 30.4838C78.3622 30.3721 78.463 30.2869 78.5836 30.2437C78.7041 30.2006 78.8362 30.2026 78.9554 30.2493C79.0746 30.2961 79.1728 30.3843 79.2318 30.4978C79.2907 30.6113 79.3065 30.7422 79.2762 30.8665C76.9403 36.1006 75.6811 41.9816 73.9292 47.4253C71.2146 55.8756 67.8568 64.0707 65.2973 72.5711C64.6084 74.8488 63.7872 77.1629 62.9204 79.4406V79.4725C62.2295 81.7683 61.3505 84.0034 60.2925 86.1553C59.2066 88.4581 57.7759 90.5825 56.0495 92.4554C54.3284 92.8518 52.64 93.3787 50.9991 94.0315C39.1736 98.7008 27.3938 108.764 30.633 122.731C31.5181 126.539 33.6441 130.151 36.897 132.338C40.6062 134.825 46.2087 136.21 50.5246 134.47C54.8405 132.73 58.4311 128.407 60.5252 124.448C61.5568 122.45 62.4486 120.383 63.1941 118.262C63.7851 116.892 64.3029 115.491 64.7453 114.066L68.6962 102.678C71.123 102.867 73.5287 103.267 75.8864 103.871C79.9432 104.944 83.9093 106.333 87.7484 108.026C91.6674 109.702 95.5408 111.606 99.4278 113.492C101.371 114.444 103.319 115.401 105.29 116.339C106.28 116.795 107.289 117.273 108.274 117.706C109.26 118.139 110.186 118.567 111.126 119C118.694 122.412 125.898 125.559 132.527 128.32C139.156 131.081 145.201 133.481 150.411 135.372C160.845 139.18 167.871 141.294 169.372 141.699C169.952 141.854 171.27 142.246 173.255 142.751L176.718 143.635L181.189 144.683C189.716 146.531 198.345 147.881 207.03 148.728C212.231 149.225 217.815 149.639 223.682 149.84C229.549 150.04 235.69 150.063 242 149.84C248.309 149.616 254.81 149.243 261.321 148.514C264.574 148.145 267.84 147.813 271.098 147.33L275.998 146.642L280.875 145.84C293.49 143.698 305.979 140.871 318.286 137.372C329.983 134.101 340.641 130.616 349.729 127.523C358.817 124.43 366.276 121.719 371.468 119.688C376.66 117.656 379.557 116.276 379.402 115.733C379.247 115.191 376.063 115.524 370.57 116.522ZM57.3452 102.017C54.7447 107.971 48.2617 121.637 41.7832 118.448C41.1784 118.146 40.6256 117.749 40.1454 117.273C39.606 116.793 39.2151 116.168 39.0185 115.474C38.7219 114.298 39.2192 113.046 39.9583 112.085C42.7276 108.44 47.1531 105.907 51.0675 103.703C52.7191 102.792 54.3934 101.88 56.118 101.092C56.3187 101.001 58.0159 100.446 58.0524 100.359L57.3452 102.017Z" fill="#EA5B13"/>
<path d="M399 44.5062L398.84 43.4357C398.192 39.4406 394.169 36.5252 389.98 36.5252H389.52C386.303 36.5252 382.758 37.7551 378.734 37.8918C379.218 36.8167 380.504 33.1359 381.148 31.1407V30.6851C381.148 29.4552 379.378 28.8402 377.443 28.8402C375.673 28.8402 373.903 29.2957 373.419 30.5303C372.612 32.5255 371.809 34.9809 371.809 36.9761C371.809 38.6571 372.265 40.1649 373.725 41.2628C373.728 41.2676 373.729 41.2731 373.729 41.2787C373.729 41.2843 373.728 41.2898 373.725 41.2947C371.179 47.5082 370.048 49.9818 366.284 57.9127C366.206 58.0768 366.143 58.2475 366.097 58.4229L366.005 58.7737C356.155 78.0111 348.308 84.4889 342.77 86.4978C342.693 86.529 342.614 86.5534 342.532 86.5707C341.442 86.8279 340.327 86.9714 339.207 86.9989C339.143 87.0034 339.079 87.0034 339.015 86.9989L337.473 86.8668C337.384 86.8576 337.296 86.8439 337.208 86.8258C331.998 85.6779 330.255 79.7422 330.255 73.9568C330.265 72.8335 330.349 71.7119 330.506 70.5995C330.548 70.3415 330.647 70.096 330.796 69.8809C330.944 69.6657 331.139 69.4862 331.366 69.3554C331.592 69.2246 331.845 69.1457 332.106 69.1246C332.367 69.1034 332.629 69.1404 332.874 69.2329C333.688 69.5149 334.544 69.6566 335.406 69.652C344.102 69.652 355.859 56.2956 356.178 45.3991V45.103C356.178 39.2721 351.187 36.3566 345.069 36.2017H344.426C332.669 36.2017 324.137 48.0184 320.273 57.8444C319.885 58.8329 319.529 59.8214 319.21 60.8191C314.365 71.219 311.167 77.8699 308.516 81.947C306.098 85.9375 304.492 87.1629 302.398 87.3178C301.59 87.3178 301.431 86.4067 301.431 84.5572C301.431 75.6833 309.105 55.2342 311.39 44.6064C311.406 44.5282 311.416 44.4491 311.422 44.3695L311.564 42.7569C311.57 42.6842 311.57 42.611 311.564 42.5383C311.504 38.4612 308.146 36.2017 304.159 36.2017C302.052 36.1832 299.985 36.7682 298.201 37.8872C293.693 40.8072 289.181 46.0232 285.8 50.0137C285.222 50.7334 284.654 51.4577 284.094 52.1866C282.725 53.945 279.828 52.6103 280.412 50.4966C281.092 48.0503 281.64 45.9412 281.918 44.5973C281.931 44.5251 281.941 44.452 281.945 44.3787L282.087 42.7569C282.093 42.6842 282.093 42.611 282.087 42.5383C282.027 38.4612 278.669 36.2017 274.682 36.2017C272.576 36.1845 270.508 36.7693 268.724 37.8872C264.216 40.8072 259.544 46.0232 256.328 50.0137C254.895 51.8358 251.907 50.3052 252.678 48.1642C253.495 45.9548 254.357 43.7455 255.292 41.5406C255.323 41.4586 255.35 41.3767 255.374 41.2947L255.397 41.2127C255.515 40.7897 255.476 40.3383 255.288 39.9417C254.252 37.869 249.726 36.2017 246.323 36.2017C244.229 36.2017 242.782 36.8167 242.299 38.0239C240.976 41.2947 237.764 50.4601 234.803 60.0902C229.784 70.9002 226.49 77.7606 223.78 81.9288C221.362 85.9193 219.752 87.1447 217.658 87.2996C216.855 87.2996 216.695 86.3885 216.695 84.539C216.695 75.6651 224.364 55.2159 226.65 44.5882C226.669 44.5105 226.681 44.4312 226.687 44.3513L226.828 42.7387C226.828 42.6658 226.828 42.5929 226.828 42.5201C226.769 38.443 223.411 36.1835 219.423 36.1835C217.317 36.165 215.249 36.7499 213.465 37.869C208.953 40.789 204.445 46.0049 201.065 49.9955C200.487 50.7152 199.917 51.4395 199.354 52.1684C197.985 53.9268 195.093 52.592 195.677 50.4783C196.357 48.0321 196.899 45.9229 197.178 44.5791C197.195 44.5073 197.206 44.4341 197.21 44.3604L197.351 42.7387C197.356 42.6659 197.356 42.5929 197.351 42.5201C197.292 38.443 193.934 36.1835 189.947 36.1835C187.84 36.165 185.772 36.7499 183.988 37.869C179.481 40.789 174.809 46.0049 171.588 49.9955C170.16 51.8176 167.172 50.287 167.938 48.146C168.755 45.9366 169.617 43.7272 170.548 41.5224C170.583 41.4427 170.612 41.3605 170.634 41.2764V41.1944C170.752 40.7715 170.713 40.3201 170.525 39.9235C169.494 37.8508 164.968 36.1835 161.564 36.1835C159.47 36.1835 158.024 36.7985 157.541 38.0057C156.172 41.3448 152.869 50.8291 149.858 60.6824C147.079 66.322 143.156 73.8703 139.342 79.4506C136.28 83.9058 133.383 87.1265 131.289 87.2814C130.326 87.2814 130.162 85.9148 130.162 83.7509C130.486 72.7178 140.916 46.3967 143.032 41.4085C143.034 41.3904 143.034 41.372 143.032 41.3539L143.169 40.8346C143.176 40.7908 143.176 40.7462 143.169 40.7025C143.078 38.2744 138.151 36.1471 134.314 36.1471C132.379 36.1471 130.769 36.762 130.29 37.9692C127.826 43.4199 125.676 49.0063 123.848 54.7012C119.5 65.9075 115.796 73.5833 112.415 78.6489C108.345 85.1905 105.289 87.336 103.514 87.336C102.711 87.336 102.551 85.9694 102.551 83.8056C102.871 72.7724 113.3 46.4514 115.421 41.4632C115.421 41.4632 115.421 41.4268 115.421 41.4085C115.507 41.1073 115.526 40.7909 115.476 40.4816C115.427 40.1723 115.31 39.8776 115.134 39.6183C113.834 37.7961 109.896 36.2291 106.717 36.2291C104.787 36.2291 103.336 36.844 102.693 38.0512C100.275 42.9665 94.4805 58.1633 92.067 68.9049C91.0998 73.0503 90.4565 77.1957 90.4565 80.4209C90.4565 83.0312 90.7759 85.1768 91.7431 86.7119C93.5133 89.9372 97.7015 90.3973 101.725 90.3973H103.82C107.524 90.2424 111.548 85.7917 114.929 80.5713C115.862 79.2872 116.723 77.9519 117.506 76.5716C117.561 76.4936 117.638 76.4344 117.728 76.4025C117.817 76.3705 117.915 76.3674 118.006 76.3935C118.098 76.4196 118.179 76.4737 118.238 76.5481C118.297 76.6225 118.332 76.7136 118.337 76.8085C118.214 78.0704 118.15 79.2775 118.15 80.4209C118.15 83.0312 118.474 85.1768 119.436 86.7119C121.211 89.9372 125.395 90.3973 129.423 90.3973H131.517C134.574 90.2424 138.119 86.7119 141.659 81.8012C143.11 79.7285 144.543 77.4189 145.925 75.0319C144.803 79.642 144.077 83.5596 144.077 85.9649V86.1015C144.237 89.632 149.392 90.3973 153.257 90.3973H154.383C155.346 90.3973 156.154 89.9417 156.154 88.8621C156.313 85.3681 157.732 79.4734 159.803 72.8043C159.849 72.6637 159.909 72.528 159.981 72.3989C164.205 65.2823 168.886 58.447 173.997 51.9361C174.029 51.893 174.064 51.852 174.102 51.8131C174.8 51.0797 178.961 45.973 181.611 43.8912C182.419 43.2763 183.062 42.9802 183.386 42.9802C183.71 42.9802 183.87 43.1305 183.87 43.5906L183.728 44.5244C183.716 44.6174 183.695 44.709 183.664 44.7978C181.839 50.7927 174.681 70.226 173.563 80.5849L173.408 82.644C173.404 82.7046 173.404 82.7655 173.408 82.8262C173.436 87.8371 176.018 90.4109 182.099 90.4109H183.874C184.837 90.4109 185.644 90.1057 185.644 88.7209V88.4157C185.644 85.9876 187.373 79.9654 189.294 72.8635C189.34 72.6923 189.409 72.5283 189.499 72.3761C193.776 65.239 198.519 58.3911 203.697 51.8768C205.873 49.0557 208.298 46.435 210.942 44.0461C211.426 43.5906 212.069 42.9756 212.553 42.9756C213.036 42.9756 213.196 43.2808 213.196 44.0461C213.036 45.7362 204.017 69.9891 203.533 80.2752V81.6418C203.533 89.1673 207.721 90.5476 213.356 90.5476L217.868 90.3927C220.924 90.2378 223.343 88.5705 226.563 83.6371C227.631 81.9424 228.808 79.8242 230.149 77.2185C229.328 80.8628 228.817 83.9423 228.817 85.9421V86.1015C228.977 89.632 234.132 90.3973 237.997 90.3973H239.123C240.091 90.3973 240.894 89.9417 240.894 88.8621C241.053 85.3681 242.472 79.4734 244.543 72.8043C244.589 72.6629 244.65 72.5269 244.726 72.3989C248.934 65.2833 253.601 58.448 258.696 51.9361C258.728 51.893 258.763 51.852 258.801 51.8131C259.499 51.0797 263.664 45.973 266.315 43.8912C267.118 43.2763 267.761 42.9802 268.085 42.9802C268.409 42.9802 268.569 43.1305 268.569 43.5906L268.427 44.5244C268.414 44.6169 268.395 44.7083 268.368 44.7978C266.543 50.7927 259.38 70.226 258.262 80.5849L258.125 82.6394C258.125 82.6986 258.125 82.7624 258.125 82.8216C258.157 87.8326 260.74 90.4064 266.794 90.4064H268.569C269.536 90.4064 270.339 90.1012 270.339 88.7163V88.4111C270.339 85.9831 272.068 79.9609 273.989 72.8544C274.032 72.6863 274.1 72.5252 274.189 72.3761C278.466 65.2389 283.209 58.391 288.387 51.8768C290.563 49.0557 292.988 46.435 295.632 44.0461C296.116 43.5906 296.759 42.9756 297.243 42.9756C297.726 42.9756 297.886 43.2808 297.886 44.0461C297.726 45.7362 288.711 69.9891 288.227 80.2752V81.6418C288.227 89.1673 292.411 90.5476 298.05 90.5476L302.558 90.3927C305.619 90.2378 308.032 88.5705 311.253 83.6371C313.433 80.0182 315.421 76.2883 317.212 72.4627V72.5857C317.212 82.2568 322.203 89.9326 335.89 90.3927H337.66C339.567 90.4078 341.466 90.1501 343.299 89.6274C349.736 87.4772 358.596 80.5667 369.382 59.0789C369.481 58.8885 369.537 58.6785 369.546 58.4639C369.546 58.4412 369.546 58.4184 369.546 58.3911C372.657 51.9133 373.985 48.8247 376.143 43.8138C376.599 42.5656 378.191 42.8389 379.177 42.9756C381.248 43.3127 386.568 40.7435 386.075 44.4789C383.465 51.8996 377.279 70.4947 377.279 81.66C377.279 86.6709 379.656 90.0055 383.429 90.6888C383.577 90.7491 383.73 90.7994 383.885 90.8391C383.885 90.8391 389.237 92.0326 389.515 90.7161L388.516 85.3271L388.21 83.3683C388.21 75.697 393.201 62.0171 395.939 54.9472C397.732 50.1868 399 46.8112 399 44.5062ZM332.947 62.0399C334.326 58.6776 336.059 55.4709 338.116 52.4736C339.727 50.3234 344.882 43.8776 348.587 43.8776C349.038 43.8324 349.491 43.9399 349.873 44.1828C350.152 44.3617 350.374 44.6147 350.516 44.9134C350.658 45.212 350.713 45.5444 350.676 45.8728C350.676 50.7835 341.501 64.2948 334.576 64.2948H334.553C334.28 64.2987 334.011 64.2364 333.768 64.1133C333.525 63.9902 333.315 63.81 333.157 63.5882C332.999 63.3664 332.898 63.1096 332.861 62.84C332.824 62.5703 332.854 62.2957 332.947 62.0399V62.0399Z" fill="#EA5B13"/>
<path d="M172.19 18.9095C172.055 18.9396 171.917 18.9549 171.779 18.955C171.227 18.955 170.953 18.7227 170.953 18.2626V13.7072H165.1V18.8001C165.027 18.8275 164.927 18.8548 164.803 18.8867C164.667 18.9166 164.528 18.9319 164.388 18.9322C163.841 18.9322 163.562 18.6999 163.562 18.2398V7.4891C163.658 7.45498 163.756 7.42609 163.854 7.40255C163.992 7.37316 164.133 7.3579 164.274 7.35699C164.826 7.35699 165.1 7.58932 165.1 8.04942V12.4317H170.953V7.51188C171.049 7.47776 171.147 7.44886 171.245 7.42532C171.383 7.39593 171.524 7.38067 171.665 7.37977C172.217 7.37977 172.491 7.6121 172.491 8.07219V18.8229C172.392 18.857 172.292 18.8859 172.19 18.9095V18.9095Z" fill="#EA5B13"/>
<path d="M187.816 15.8255H182.797C182.706 16.076 182.615 16.3494 182.515 16.6409C182.414 16.9324 182.318 17.224 182.223 17.5019C182.127 17.7797 182.04 18.0485 181.949 18.2899C181.858 18.5314 181.794 18.7455 181.744 18.9004C181.548 18.9775 181.338 19.0146 181.128 19.0097C180.936 19.0144 180.748 18.9586 180.589 18.8503C180.51 18.7915 180.447 18.7133 180.406 18.6232C180.365 18.533 180.348 18.434 180.357 18.3355C180.358 18.218 180.376 18.1014 180.411 17.9893C180.452 17.8708 180.494 17.7433 180.544 17.6066C180.732 17.0843 180.973 16.4101 181.265 15.584C181.557 14.758 181.876 13.8803 182.223 12.951C182.566 12.0217 182.916 11.0863 183.272 10.1449C183.628 9.20345 183.956 8.35615 184.257 7.60299C184.405 7.54151 184.558 7.49127 184.714 7.45266C184.917 7.40519 185.125 7.38074 185.334 7.37978C185.579 7.37886 185.822 7.41732 186.055 7.49366C186.156 7.51283 186.251 7.55708 186.331 7.62234C186.41 7.6876 186.472 7.77179 186.511 7.8672C186.815 8.58999 187.138 9.41756 187.478 10.3499C187.821 11.261 188.172 12.2313 188.519 13.2061C188.865 14.181 189.203 15.1376 189.522 16.0806C189.842 17.0235 190.129 17.8754 190.375 18.6362C190.276 18.7495 190.155 18.8423 190.02 18.9095C189.877 18.9773 189.721 19.0116 189.563 19.0097C189.369 19.0241 189.176 18.9674 189.02 18.8503C188.869 18.7033 188.759 18.5196 188.701 18.3173L187.816 15.8255ZM185.302 8.65984L184.846 9.93991C184.668 10.4228 184.49 10.9239 184.298 11.4477C184.107 11.9716 183.924 12.5046 183.737 13.0421C183.55 13.5797 183.372 14.0899 183.213 14.5773H187.41C187.223 14.017 187.027 13.4521 186.826 12.8827C186.625 12.3133 186.438 11.7666 186.256 11.2427L185.749 9.78958C185.594 9.33404 185.466 8.96961 185.366 8.65984H185.302Z" fill="#EA5B13"/>
<path d="M199.016 18.955C198.464 18.955 198.19 18.7318 198.19 18.2808V7.69859C198.328 7.57751 198.489 7.48528 198.663 7.42737C198.837 7.36946 199.02 7.34706 199.203 7.36149C199.47 7.35333 199.734 7.41455 199.97 7.53915C200.22 7.69722 200.422 7.921 200.554 8.18602L204.135 14.1764L204.591 15.01C204.756 15.3061 204.911 15.5976 205.048 15.8937C205.184 16.1898 205.335 16.4632 205.467 16.7183L205.796 17.3606H205.873C205.773 16.3493 205.714 15.3319 205.695 14.3085C205.695 13.2881 205.664 12.2859 205.664 11.311V7.53004L205.965 7.44349C206.101 7.4136 206.24 7.39832 206.38 7.39793C206.927 7.39793 207.206 7.62115 207.206 8.07214V18.6725C207.071 18.7817 206.916 18.8623 206.749 18.9094C206.561 18.9659 206.366 18.9936 206.17 18.9914C205.884 19.0145 205.598 18.9473 205.353 18.7994C205.107 18.6514 204.914 18.4302 204.801 18.1669L201.233 12.1765C201.083 11.926 200.923 11.6481 200.777 11.352C200.631 11.0559 200.444 10.7553 200.289 10.4683C200.134 10.1813 199.988 9.90796 199.833 9.6483L199.504 8.99232H199.431C199.489 9.59971 199.539 10.283 199.582 11.0422C199.618 11.8076 199.637 12.5364 199.637 13.2243V18.8229C199.542 18.8591 199.444 18.888 199.345 18.9094C199.237 18.9338 199.127 18.949 199.016 18.955V18.955Z" fill="#EA5B13"/>
<path d="M225.733 13.0376C225.753 13.9452 225.611 14.8492 225.313 15.707C225.059 16.4158 224.649 17.0587 224.113 17.5884C223.577 18.0956 222.933 18.4756 222.229 18.6999C221.429 18.9553 220.592 19.0799 219.752 19.0689C219.35 19.0689 218.899 19.0689 218.383 19.0188C217.899 18.9929 217.419 18.9088 216.955 18.7683C216.43 18.6043 216.17 18.3127 216.17 17.9073V8.27718C216.159 8.11156 216.213 7.94814 216.321 7.82164C216.448 7.69854 216.606 7.61063 216.777 7.56654C217.204 7.43547 217.645 7.35445 218.091 7.32511C218.579 7.28866 219.067 7.26589 219.556 7.26589C220.405 7.25639 221.25 7.38092 222.06 7.63487C222.776 7.8553 223.437 8.22483 223.999 8.71906C224.552 9.22325 224.983 9.84635 225.259 10.5412C225.578 11.3345 225.739 12.1825 225.733 13.0376V13.0376ZM224.177 13.0376C224.197 12.3365 224.073 11.6388 223.812 10.9876C223.591 10.4523 223.251 9.97404 222.818 9.58913C222.392 9.22365 221.892 8.95339 221.353 8.7965C220.773 8.62357 220.17 8.5376 219.565 8.5414C219.163 8.5414 218.817 8.5414 218.525 8.57784C218.251 8.60146 217.978 8.63947 217.708 8.69173V17.6066C218.026 17.6824 218.349 17.7326 218.675 17.757C219.017 17.7797 219.369 17.7934 219.734 17.7934C221.209 17.7934 222.319 17.394 223.064 16.5953C223.817 15.7981 224.186 14.6092 224.186 13.0376H224.177Z" fill="#EA5B13"/>
<path d="M240.451 15.9029C240.343 15.9734 240.227 16.03 240.104 16.0714C239.957 16.1197 239.803 16.1443 239.648 16.1443C239.466 16.1468 239.285 16.1159 239.114 16.0532C239.042 16.0279 238.976 15.9882 238.919 15.9365C238.863 15.8848 238.817 15.8223 238.786 15.7525C238.111 14.3556 237.528 13.0755 237.038 11.9123C236.549 10.7492 236.155 9.78801 235.857 9.02878H235.77C235.734 9.96263 235.693 10.8509 235.647 11.639C235.601 12.4271 235.556 13.2334 235.505 13.9987C235.455 14.764 235.405 15.5475 235.359 16.3311C235.314 17.1146 235.259 17.9619 235.209 18.8593C235.113 18.8902 235.016 18.9161 234.917 18.9368C234.791 18.961 234.662 18.9732 234.534 18.9732C234.324 18.9956 234.115 18.9351 233.95 18.8047C233.89 18.739 233.844 18.662 233.815 18.5782C233.786 18.4944 233.775 18.4056 233.781 18.3172C233.781 18.1957 233.79 17.927 233.808 17.5109C233.808 17.1009 233.859 16.5998 233.895 16.0122C233.932 15.4246 233.973 14.7777 234.014 14.067C234.055 13.3564 234.109 12.6321 234.164 11.8941C234.219 11.1562 234.278 10.4318 234.333 9.7212C234.388 9.01056 234.442 8.35458 234.493 7.77149C234.63 7.66546 234.784 7.58379 234.949 7.53006C235.152 7.45053 235.369 7.41183 235.588 7.41617C235.834 7.3968 236.081 7.45262 236.295 7.57625C236.51 7.69988 236.681 7.8855 236.788 8.10859C237.025 8.59602 237.267 9.11078 237.508 9.65743C237.75 10.2041 237.997 10.7507 238.238 11.3156C238.48 11.8805 238.722 12.4317 238.955 12.9783C239.187 13.525 239.411 14.0534 239.621 14.5545H239.694C239.967 13.8939 240.246 13.238 240.519 12.5957C240.793 11.9533 241.062 11.3338 241.327 10.7325C241.592 10.1312 241.838 9.57087 242.075 9.047C242.312 8.52313 242.531 8.04026 242.714 7.60294C242.857 7.53111 243.011 7.48486 243.17 7.46628C243.33 7.43529 243.491 7.41852 243.654 7.41617C244.242 7.41617 244.566 7.61661 244.671 8.01748C244.717 8.2407 244.776 8.61424 244.835 9.13355C244.895 9.65287 244.963 10.2451 245.027 10.9193C245.091 11.5935 245.146 12.3178 245.205 13.0922C245.264 13.8666 245.314 14.6137 245.365 15.3289C245.415 16.0441 245.456 16.6955 245.492 17.315C245.529 17.9346 245.561 18.3992 245.588 18.75C245.354 18.9032 245.079 18.9811 244.799 18.9732C244.623 18.9769 244.45 18.9277 244.302 18.832C244.223 18.7712 244.16 18.6931 244.116 18.6038C244.073 18.5146 244.05 18.4165 244.051 18.3172C243.987 17.4061 243.931 16.4951 243.882 15.584C243.832 14.6729 243.786 13.8302 243.74 13.0193C243.695 12.2084 243.654 11.4614 243.617 10.778C243.581 10.0947 243.549 9.52077 243.526 9.047H243.448C243.312 9.39777 243.152 9.78953 242.969 10.2268C242.787 10.6642 242.577 11.1379 242.335 11.7074C242.093 12.2768 241.82 12.8781 241.519 13.5705L240.451 15.9029Z" fill="#EA5B13"/>
<path d="M260.672 15.8254H255.653L255.37 16.6409C255.27 16.937 255.174 17.2239 255.078 17.5018C254.982 17.7797 254.896 18.0485 254.809 18.2899C254.722 18.5313 254.649 18.7454 254.604 18.9003C254.406 18.977 254.195 19.0141 253.983 19.0097C253.793 19.0134 253.606 18.9576 253.449 18.8502C253.368 18.7926 253.304 18.7147 253.262 18.6244C253.221 18.5341 253.203 18.4345 253.212 18.3355C253.213 18.2176 253.233 18.1006 253.272 17.9893C253.308 17.8708 253.349 17.7433 253.399 17.6066C253.591 17.0827 253.828 16.4085 254.125 15.584C254.421 14.7595 254.736 13.8803 255.078 12.951C255.42 12.0217 255.772 11.0878 256.132 10.1449C256.493 9.20189 256.816 8.35459 257.118 7.60295C257.265 7.54037 257.418 7.4901 257.574 7.45263C257.777 7.40516 257.985 7.38071 258.194 7.37974C258.439 7.37827 258.683 7.41673 258.915 7.49363C259.016 7.51431 259.11 7.55912 259.189 7.62419C259.269 7.68926 259.331 7.77265 259.371 7.86716C259.675 8.58995 259.996 9.41752 260.334 10.3499C260.672 11.2822 261.02 12.2343 261.379 13.2061C261.725 14.1764 262.063 15.1376 262.382 16.0805C262.702 17.0235 262.985 17.8754 263.236 18.6361C263.136 18.7494 263.015 18.8423 262.88 18.9094C262.737 18.9764 262.581 19.0106 262.423 19.0097C262.229 19.0249 262.036 18.9682 261.881 18.8502C261.728 18.7045 261.618 18.5204 261.561 18.3172L260.672 15.8254ZM258.158 8.65981C258.021 9.03335 257.861 9.46155 257.702 9.93987L257.159 11.4477L256.593 13.0421C256.406 13.5796 256.232 14.0898 256.068 14.5773H260.288C260.101 14.017 259.91 13.4521 259.709 12.8827L259.134 11.2427C258.956 10.7188 258.787 10.236 258.628 9.78954C258.468 9.34311 258.345 8.96957 258.244 8.65981H258.158Z" fill="#EA5B13"/>
<path d="M280.59 13.0375C280.608 13.945 280.466 14.8486 280.171 15.707C279.916 16.4166 279.504 17.0597 278.966 17.5884C278.431 18.0975 277.787 18.4777 277.082 18.6999C276.283 18.9556 275.448 19.0802 274.609 19.0689C274.208 19.0689 273.756 19.0689 273.24 19.0187C272.758 18.9925 272.28 18.9083 271.817 18.7682C271.292 18.6042 271.028 18.3127 271.028 17.9072V8.27713C271.017 8.11151 271.071 7.94809 271.178 7.82159C271.305 7.69815 271.463 7.61019 271.635 7.56649C272.062 7.43542 272.503 7.3544 272.948 7.32506C273.437 7.28862 273.925 7.26584 274.408 7.26584C275.258 7.25565 276.103 7.3802 276.913 7.63482C277.63 7.8553 278.293 8.22479 278.857 8.71901C279.409 9.22219 279.839 9.84568 280.111 10.5412C280.434 11.3335 280.597 12.182 280.59 13.0375V13.0375ZM279.035 13.0375C279.053 12.3366 278.928 11.6394 278.67 10.9876C278.448 10.4522 278.108 9.97399 277.675 9.58908C277.249 9.2236 276.75 8.95334 276.211 8.79645C275.629 8.62353 275.025 8.53757 274.418 8.54135C274.021 8.54135 273.674 8.54135 273.377 8.57779C273.103 8.60173 272.831 8.63974 272.561 8.69168V17.6066C272.879 17.682 273.202 17.7322 273.528 17.7569C273.87 17.7797 274.226 17.7933 274.586 17.7933C276.065 17.7933 277.175 17.394 277.917 16.5953C278.656 15.7981 279.035 14.6091 279.035 13.0375Z" fill="#EA5B13"/>
<path d="M289.149 18.6361C289.073 18.5572 289.013 18.4637 288.974 18.3611C288.935 18.2585 288.917 18.1491 288.921 18.0394V8.29993C288.916 8.18949 288.934 8.07924 288.973 7.97587C289.013 7.8725 289.072 7.77817 289.149 7.69861C289.228 7.6226 289.322 7.56357 289.425 7.52518C289.528 7.48679 289.637 7.46984 289.747 7.47539H295.974C296.021 7.55473 296.059 7.6387 296.088 7.72594C296.126 7.8376 296.144 7.95455 296.143 8.07216C296.153 8.25306 296.1 8.43187 295.993 8.57781C295.942 8.64108 295.876 8.69109 295.801 8.7236C295.726 8.75612 295.645 8.77017 295.564 8.76457H290.418V12.3816H295.372C295.416 12.4616 295.453 12.5454 295.482 12.6321C295.522 12.7429 295.543 12.8603 295.541 12.9783C295.552 13.1565 295.499 13.3328 295.39 13.4749C295.336 13.5352 295.269 13.5825 295.194 13.6132C295.119 13.644 295.038 13.6574 294.957 13.6525H290.395V17.5884H296.025C296.069 17.6651 296.106 17.746 296.134 17.8298C296.177 17.9433 296.197 18.064 296.193 18.1851C296.205 18.3633 296.151 18.5396 296.043 18.6817C295.989 18.742 295.922 18.7893 295.847 18.82C295.771 18.8508 295.69 18.8642 295.609 18.8593H289.678C289.481 18.8526 289.292 18.7731 289.149 18.6361V18.6361Z" fill="#EA5B13"/>
</svg>
