<?xml version="1.0" encoding="utf-8"?>
<!-- Generator: Adobe Illustrator 24.1.1, SVG Export Plug-In . SVG Version: 6.00 Build 0)  -->
<svg version="1.1" id="Camada_1" xmlns="http://www.w3.org/2000/svg" xmlns:xlink="http://www.w3.org/1999/xlink" x="0px" y="0px"
	 viewBox="0 0 408 451" style="enable-background:new 0 0 408 451;" xml:space="preserve">
<style type="text/css">
	.st0{fill:#263143;}
	.st1{fill:#FFFFFF;}
</style>
<g>
	<path class="st0" d="M318.7,228.03c0,63.39-43.14,146.53-114.78,114.78c-57.96-25.68-114.78-51.39-114.78-114.78
		s84.49-59.09,114.78-114.78C229.15,66.85,318.7,164.64,318.7,228.03z"/>
	<path class="st1" d="M255.3,244.19c-2.11-3.41-6.73-3.72-9.85-1.2c-2.57,2.07-5.31,3.68-8.2,5.75c-1.48,1.06-2.95,2.08-4.41,3.07
		c9.22-25.77,19.2-51.19,27.54-77.33c0.14-3.64-13.3-7.64-16.08-3.2c-2.89,8.45-13.91,29.5-24.75,44.85
		c-4.04,7.18-22.73,26.69-23.13,19.77c-0.73-13.24,13.09-40.03,14.64-56.34c1.02-8.26-8.85-11.56-18.79-10.18
		c-6.86,0.52-14.27,6.04-20.96,13.45c-8.06,9.11-28.14,36.61-9.21,38.64c2.92,0.42,7.34,0.12,8.13-1.55
		c1.46-0.7,23.35-47.11,26.22-43.81c8.23,4.11-35.35,69.53-2.37,69.68c14.61,0.17,31.62-28.81,40.63-45.34
		c0.3-0.57,1.2-0.21,1.01,0.39c-2.4,5.39-3.7,11.44-5.5,17.05c-2.79,8.7-6.24,17.14-8.87,25.89c-0.71,2.37-1.55,4.73-2.44,7.07
		l0,0.01l-0.01,0.03c-0.12,0.4-1.02,3.48-2.7,6.88c-1.05,2.12-2.4,4.36-4.05,6.15c-0.15,0.08-0.31,0.16-0.46,0.23l0.06,0.13
		c-1.71,0.4-3.41,0.91-5.11,1.58c-12.16,4.81-24.27,15.17-20.94,29.57c0.91,3.92,3.09,7.64,6.44,9.89
		c3.81,2.56,9.58,3.99,14.01,2.19c4.39-1.77,8.13-6.24,10.28-10.32c1.08-2.04,1.96-4.19,2.75-6.37c1.08-2.55,1.59-4.32,1.59-4.32
		l4.06-11.74l1.72-4.98c9.06-4.93,18.12-9.86,27.17-14.79c3.37-1.84,4.5-6.13,2.48-9.39L255.3,244.19z M213.17,274.1
		c0,0.01-0.01,0.01-0.01,0.02c-2.67,6.11-9.33,20.19-16,16.93c-0.56-0.27-1.12-0.67-1.68-1.21c-0.53-0.51-0.98-1.14-1.16-1.85
		c-0.3-1.21,0.21-2.5,0.96-3.49c2.85-3.74,7.4-6.36,11.42-8.63c1.7-0.96,3.42-1.88,5.19-2.69c0.04-0.02,0.15-0.06,0.3-0.11
		C212.84,272.84,213.44,273.48,213.17,274.1z"/>
</g>
</svg>
