<svg width="71" height="76" viewBox="0 0 71 76" fill="none" xmlns="http://www.w3.org/2000/svg">
<path d="M71 38.7139C71 58.0582 57.6573 83.4295 35.5 73.7406C17.5737 65.904 0 58.0582 0 38.7139C0 19.3696 26.1317 20.6818 35.5 3.68723C43.3033 -10.4724 71 19.3696 71 38.7139Z" fill="#EA5B13"/>
<path d="M51.391 43.6458C50.7384 42.6052 49.3095 42.5106 48.3445 43.2796C47.5496 43.9113 46.7022 44.4026 45.8084 45.0343C45.3506 45.3577 44.896 45.669 44.4444 45.9711C47.296 38.1071 50.3827 30.3498 52.9622 22.3728C53.0055 21.262 48.8486 20.0414 47.9888 21.3963C47.095 23.9749 43.6866 30.3986 40.334 35.0829C39.0844 37.274 33.3039 43.2277 33.1802 41.116C32.9544 37.0756 37.2287 28.9003 37.7081 23.9231C38.0236 21.4024 34.9709 20.3954 31.8966 20.8165C29.7749 20.9752 27.4831 22.6597 25.4139 24.9209C22.9211 27.701 16.7106 36.093 22.5654 36.7125C23.4685 36.8406 24.8356 36.7491 25.0799 36.2395C25.5315 36.0258 32.3018 21.8632 33.1894 22.8702C35.7349 24.1245 22.2561 44.0883 32.4564 44.134C36.9751 44.1859 42.2361 35.3423 45.0228 30.2979C45.1156 30.124 45.3939 30.2338 45.3351 30.4169C44.5929 32.0618 44.1908 33.908 43.6341 35.62C42.7712 38.2749 41.7041 40.8505 40.8907 43.5207C40.6711 44.2439 40.4113 44.9641 40.136 45.6782V45.6812L40.1329 45.6904C40.0958 45.8124 39.8175 46.7523 39.2979 47.7899C38.9731 48.4368 38.5556 49.1204 38.0452 49.6667C37.9988 49.6911 37.9494 49.7155 37.903 49.7368L37.9215 49.7765C37.3926 49.8986 36.8669 50.0542 36.3411 50.2587C32.5801 51.7265 28.8347 54.888 29.8646 59.2823C30.146 60.4786 30.8203 61.6138 31.8564 62.3004C33.0348 63.0816 34.8194 63.518 36.1895 62.9687C37.5473 62.4286 38.704 61.0645 39.369 59.8194C39.703 59.1969 39.9752 58.5408 40.2195 57.8755C40.5536 57.0974 40.7113 56.5572 40.7113 56.5572L41.967 52.9746L42.499 51.4549C45.3011 49.9504 48.1033 48.446 50.9023 46.9415C51.9446 46.38 52.2941 45.0709 51.6693 44.0761L51.391 43.6458ZM38.3607 52.7732C38.3607 52.7763 38.3576 52.7763 38.3576 52.7793C37.5318 54.6439 35.472 58.9406 33.409 57.9457C33.2358 57.8633 33.0626 57.7413 32.8894 57.5765C32.7255 57.4208 32.5863 57.2286 32.5307 57.0119C32.4379 56.6427 32.5956 56.249 32.8276 55.9469C33.709 54.8056 35.1163 54.0061 36.3596 53.3134C36.8854 53.0204 37.4174 52.7396 37.9648 52.4925C37.9772 52.4864 38.0112 52.4742 38.0576 52.4589C38.2586 52.3887 38.4442 52.584 38.3607 52.7732Z" fill="white"/>
</svg>
