<svg width="161" height="161" viewBox="0 0 161 161" fill="none" xmlns="http://www.w3.org/2000/svg">
<rect width="161" height="161" rx="20" fill="#EA5B13"/>
<path d="M34.176 74.8C35.168 74.8 36.0267 74.9653 36.752 75.296C37.488 75.6267 38.0533 76.096 38.448 76.704C38.8427 77.312 39.04 78.032 39.04 78.864C39.04 79.6853 38.8427 80.4053 38.448 81.024C38.0533 81.632 37.488 82.1013 36.752 82.432C36.0267 82.752 35.168 82.912 34.176 82.912H31.92V86H29.328V74.8H34.176ZM34.032 80.8C34.8107 80.8 35.4027 80.6347 35.808 80.304C36.2133 79.9627 36.416 79.4827 36.416 78.864C36.416 78.2347 36.2133 77.7547 35.808 77.424C35.4027 77.0827 34.8107 76.912 34.032 76.912H31.92V80.8H34.032ZM40.8905 74.8H43.4825V86H40.8905V74.8ZM53.1965 86L50.4925 82.112L47.8365 86H44.8605L49.0045 80.304L45.0685 74.8H48.0125L50.5885 78.432L53.1165 74.8H55.9165L52.0125 80.208L56.1885 86H53.1965ZM74.2056 87.2C73.843 87.648 73.4003 87.9893 72.8776 88.224C72.3656 88.4587 71.8003 88.576 71.1816 88.576C70.3496 88.576 69.5976 88.3947 68.9256 88.032C68.2536 87.68 67.4856 87.0507 66.6216 86.144C65.6083 86.016 64.7016 85.6907 63.9016 85.168C63.1123 84.6453 62.4936 83.9733 62.0456 83.152C61.6083 82.32 61.3896 81.4027 61.3896 80.4C61.3896 79.3013 61.651 78.3147 62.1736 77.44C62.707 76.5547 63.4376 75.8613 64.3656 75.36C65.3043 74.8587 66.355 74.608 67.5176 74.608C68.6803 74.608 69.7256 74.8587 70.6536 75.36C71.5816 75.8613 72.3123 76.5547 72.8456 77.44C73.379 78.3147 73.6456 79.3013 73.6456 80.4C73.6456 81.7013 73.2776 82.8427 72.5416 83.824C71.8163 84.8053 70.851 85.488 69.6456 85.872C69.9123 86.1493 70.1683 86.3467 70.4136 86.464C70.6696 86.592 70.9416 86.656 71.2296 86.656C71.923 86.656 72.531 86.3787 73.0536 85.824L74.2056 87.2ZM64.0136 80.4C64.0136 81.0933 64.163 81.712 64.4616 82.256C64.771 82.8 65.1923 83.2267 65.7256 83.536C66.259 83.8347 66.8563 83.984 67.5176 83.984C68.179 83.984 68.7763 83.8347 69.3096 83.536C69.843 83.2267 70.259 82.8 70.5576 82.256C70.867 81.712 71.0216 81.0933 71.0216 80.4C71.0216 79.7067 70.867 79.088 70.5576 78.544C70.259 78 69.843 77.5787 69.3096 77.28C68.7763 76.9707 68.179 76.816 67.5176 76.816C66.8563 76.816 66.259 76.9707 65.7256 77.28C65.1923 77.5787 64.771 78 64.4616 78.544C64.163 79.088 64.0136 79.7067 64.0136 80.4ZM82.7296 86L80.5696 82.88H80.4416H78.1856V86H75.5936V74.8H80.4416C81.4336 74.8 82.2923 74.9653 83.0176 75.296C83.7536 75.6267 84.319 76.096 84.7136 76.704C85.1083 77.312 85.3056 78.032 85.3056 78.864C85.3056 79.696 85.103 80.416 84.6976 81.024C84.303 81.6213 83.7376 82.08 83.0016 82.4L85.5136 86H82.7296ZM82.6816 78.864C82.6816 78.2347 82.479 77.7547 82.0736 77.424C81.6683 77.0827 81.0763 76.912 80.2976 76.912H78.1856V80.816H80.2976C81.0763 80.816 81.6683 80.6453 82.0736 80.304C82.479 79.9627 82.6816 79.4827 82.6816 78.864ZM97.2505 86.192C96.1092 86.192 95.0745 85.9467 94.1465 85.456C93.2292 84.9547 92.5038 84.2667 91.9705 83.392C91.4478 82.5067 91.1865 81.5093 91.1865 80.4C91.1865 79.2907 91.4478 78.2987 91.9705 77.424C92.5038 76.5387 93.2292 75.8507 94.1465 75.36C95.0745 74.8587 96.1145 74.608 97.2665 74.608C98.2372 74.608 99.1118 74.7787 99.8905 75.12C100.68 75.4613 101.341 75.952 101.875 76.592L100.211 78.128C99.4532 77.2533 98.5145 76.816 97.3945 76.816C96.7012 76.816 96.0825 76.9707 95.5385 77.28C94.9945 77.5787 94.5678 78 94.2585 78.544C93.9598 79.088 93.8105 79.7067 93.8105 80.4C93.8105 81.0933 93.9598 81.712 94.2585 82.256C94.5678 82.8 94.9945 83.2267 95.5385 83.536C96.0825 83.8347 96.7012 83.984 97.3945 83.984C98.5145 83.984 99.4532 83.5413 100.211 82.656L101.875 84.192C101.341 84.8427 100.68 85.3387 99.8905 85.68C99.1012 86.0213 98.2212 86.192 97.2505 86.192ZM107.248 86.128C106.341 86.128 105.525 85.9413 104.8 85.568C104.085 85.184 103.525 84.656 103.12 83.984C102.715 83.312 102.512 82.5493 102.512 81.696C102.512 80.8427 102.715 80.08 103.12 79.408C103.525 78.736 104.085 78.2133 104.8 77.84C105.525 77.456 106.341 77.264 107.248 77.264C108.155 77.264 108.965 77.456 109.68 77.84C110.395 78.2133 110.955 78.736 111.36 79.408C111.765 80.08 111.968 80.8427 111.968 81.696C111.968 82.5493 111.765 83.312 111.36 83.984C110.955 84.656 110.395 85.184 109.68 85.568C108.965 85.9413 108.155 86.128 107.248 86.128ZM107.248 84.08C107.888 84.08 108.411 83.8667 108.816 83.44C109.232 83.0027 109.44 82.4213 109.44 81.696C109.44 80.9707 109.232 80.3947 108.816 79.968C108.411 79.5307 107.888 79.312 107.248 79.312C106.608 79.312 106.08 79.5307 105.664 79.968C105.248 80.3947 105.04 80.9707 105.04 81.696C105.04 82.4213 105.248 83.0027 105.664 83.44C106.08 83.8667 106.608 84.08 107.248 84.08ZM122.404 74.128V86H120.02V85.008C119.402 85.7547 118.506 86.128 117.332 86.128C116.522 86.128 115.786 85.9467 115.124 85.584C114.474 85.2213 113.962 84.704 113.588 84.032C113.215 83.36 113.028 82.5813 113.028 81.696C113.028 80.8107 113.215 80.032 113.588 79.36C113.962 78.688 114.474 78.1707 115.124 77.808C115.786 77.4453 116.522 77.264 117.332 77.264C118.431 77.264 119.29 77.6107 119.908 78.304V74.128H122.404ZM117.764 84.08C118.394 84.08 118.916 83.8667 119.332 83.44C119.748 83.0027 119.956 82.4213 119.956 81.696C119.956 80.9707 119.748 80.3947 119.332 79.968C118.916 79.5307 118.394 79.312 117.764 79.312C117.124 79.312 116.596 79.5307 116.18 79.968C115.764 80.3947 115.556 80.9707 115.556 81.696C115.556 82.4213 115.764 83.0027 116.18 83.44C116.596 83.8667 117.124 84.08 117.764 84.08ZM133.147 81.728C133.147 81.76 133.131 81.984 133.099 82.4H126.587C126.704 82.9333 126.981 83.3547 127.419 83.664C127.856 83.9733 128.4 84.128 129.051 84.128C129.499 84.128 129.893 84.064 130.235 83.936C130.587 83.7973 130.912 83.584 131.211 83.296L132.539 84.736C131.728 85.664 130.544 86.128 128.987 86.128C128.016 86.128 127.157 85.9413 126.411 85.568C125.664 85.184 125.088 84.656 124.683 83.984C124.277 83.312 124.075 82.5493 124.075 81.696C124.075 80.8533 124.272 80.096 124.667 79.424C125.072 78.7413 125.621 78.2133 126.315 77.84C127.019 77.456 127.803 77.264 128.667 77.264C129.509 77.264 130.272 77.4453 130.955 77.808C131.637 78.1707 132.171 78.6933 132.555 79.376C132.949 80.048 133.147 80.832 133.147 81.728ZM128.683 79.152C128.117 79.152 127.643 79.312 127.259 79.632C126.875 79.952 126.64 80.3893 126.555 80.944H130.795C130.709 80.4 130.475 79.968 130.091 79.648C129.707 79.3173 129.237 79.152 128.683 79.152Z" fill="#263143"/>
</svg>
